<svg width="50" height="50" viewBox="0 0 50 50" fill="none" xmlns="http://www.w3.org/2000/svg">
<mask id="mask0_12_76" style="mask-type:alpha" maskUnits="userSpaceOnUse" x="0" y="0" width="50" height="50">
<circle cx="25" cy="25" r="25" fill="#3131FF"/>
</mask>
<g mask="url(#mask0_12_76)">
<path d="M25 28.9286C16.5358 28.9286 9.64282 37.7786 9.64282 48.6831C9.64282 49.4206 10.0145 50 10.4875 50H39.5124C39.9854 50 40.3571 49.4206 40.3571 48.6831C40.3571 37.7786 33.4641 28.9286 25 28.9286Z" fill="#1E1E1E"/>
<path d="M24.8665 33.3045C29.5266 33.3045 33.3044 29.5267 33.3044 24.8666C33.3044 20.2064 29.5266 16.4286 24.8665 16.4286C20.2063 16.4286 16.4285 20.2064 16.4285 24.8666C16.4285 29.5267 20.2063 33.3045 24.8665 33.3045Z" fill="#FF7AAC"/>
<circle cx="16.7857" cy="21.0715" r="4.64286" fill="#8D8FFE"/>
<circle cx="21.4285" cy="16.4286" r="4.64286" fill="#8D8FFE"/>
<ellipse cx="27.3214" cy="15" rx="5.89286" ry="5.71429" fill="#8D8FFE"/>
<ellipse cx="32.8572" cy="20" rx="5.35714" ry="5.71429" fill="#8D8FFE"/>
<circle cx="22.8571" cy="25.3571" r="1.60714" fill="#1E1E1E"/>
<circle cx="26.6071" cy="25.3571" r="1.60714" fill="#1E1E1E"/>
<circle cx="25" cy="25" r="24" stroke="#3131FF" stroke-width="2"/>
</g>
</svg>
