<svg width="22" height="28" viewBox="0 0 22 28" fill="none" xmlns="http://www.w3.org/2000/svg">
<path d="M11.0324 24.708C8.10907 24.708 5.18578 24.2438 2.41304 23.3153C1.35915 22.9515 0.556186 22.2113 0.20489 21.2452C-0.158953 20.2791 -0.0334904 19.2127 0.54364 18.2592L1.98647 15.8628C2.28758 15.361 2.5636 14.3573 2.5636 13.7676V10.1417C2.5636 5.47451 6.36513 1.67298 11.0324 1.67298C15.6996 1.67298 19.5012 5.47451 19.5012 10.1417V13.7676C19.5012 14.3447 19.7772 15.361 20.0783 15.8754L21.5086 18.2592C22.0481 19.1625 22.1484 20.254 21.7846 21.2452C21.4207 22.2364 20.6303 22.9891 19.6392 23.3153C16.879 24.2438 13.9557 24.708 11.0324 24.708ZM11.0324 3.55493C7.40647 3.55493 4.44554 6.50331 4.44554 10.1417V13.7676C4.44554 14.6835 4.06915 16.0385 3.60494 16.8289L2.16211 19.2253C1.8861 19.6895 1.81082 20.1788 1.97392 20.5928C2.12448 21.0194 2.50086 21.3456 3.01526 21.5212C8.25962 23.2777 13.8177 23.2777 19.062 21.5212C19.5137 21.3707 19.865 21.0319 20.0281 20.5803C20.1912 20.1286 20.1536 19.6393 19.9026 19.2253L18.4598 16.8289C17.9831 16.0134 17.6192 14.6709 17.6192 13.7551V10.1417C17.6192 6.50331 14.6708 3.55493 11.0324 3.55493Z" fill="#3131FF"/>
<path d="M13.3656 3.894C13.2778 3.894 13.19 3.88146 13.1021 3.85636C12.7383 3.75599 12.387 3.68072 12.0482 3.63053C10.9818 3.49252 9.95301 3.5678 8.98695 3.85636C8.63565 3.96928 8.2593 3.85636 8.02092 3.59289C7.78254 3.32942 7.70726 2.95303 7.84527 2.61428C8.35967 1.29692 9.61426 0.431221 11.0445 0.431221C12.4748 0.431221 13.7295 1.28437 14.2439 2.61428C14.3693 2.95303 14.3066 3.32942 14.0682 3.59289C13.88 3.79363 13.6165 3.894 13.3656 3.894Z" fill="#3131FF"/>
<path d="M11.0319 27.5688C9.78983 27.5688 8.58539 27.0669 7.70718 26.1887C6.82894 25.3104 6.32709 24.106 6.32709 22.8639H8.20903C8.20903 23.6041 8.51011 24.3318 9.03705 24.8588C9.564 25.3857 10.2917 25.6868 11.0319 25.6868C12.5877 25.6868 13.8548 24.4196 13.8548 22.8639H15.7368C15.7368 25.461 13.629 27.5688 11.0319 27.5688Z" fill="#3131FF"/>
</svg>
