<svg width="14" height="17" viewBox="0 0 14 17" fill="none" xmlns="http://www.w3.org/2000/svg">
<path d="M6.99858 10.1157C5.40896 10.1157 4.11041 8.82457 4.11041 7.22751C4.11041 5.63048 5.40896 4.34686 6.99858 4.34686C8.58818 4.34686 9.88672 5.63794 9.88672 7.23497C9.88672 8.83204 8.58818 10.1157 6.99858 10.1157ZM6.99858 5.4663C6.02841 5.4663 5.22985 6.25736 5.22985 7.23497C5.22985 8.21261 6.02094 9.00368 6.99858 9.00368C7.97622 9.00368 8.76729 8.21261 8.76729 7.23497C8.76729 6.25736 7.96876 5.4663 6.99858 5.4663Z" fill="#3131FF"/>
<path d="M6.9977 16.5264C5.89319 16.5264 4.78121 16.1084 3.91551 15.2801C1.71396 13.1606 -0.718945 9.7799 0.198992 5.7574C1.02737 2.10804 4.21403 0.473663 6.9977 0.473663H7.00516C9.78882 0.473663 12.9755 2.10804 13.8039 5.76486C14.7143 9.78736 12.2814 13.1606 10.0799 15.2801C9.21418 16.1084 8.10221 16.5264 6.9977 16.5264ZM6.9977 1.5931C4.82599 1.5931 2.03486 2.74985 1.29604 6.00367C0.490045 9.5187 2.69906 12.5486 4.69912 14.4666C5.99021 15.7129 8.01265 15.7129 9.30373 14.4666C11.2963 12.5486 13.5053 9.5187 12.7143 6.00367C11.968 2.74985 9.1694 1.5931 6.9977 1.5931Z" fill="#3131FF"/>
</svg>
