<svg width="164" height="43" viewBox="0 0 164 43" fill="none" xmlns="http://www.w3.org/2000/svg">
<path d="M88.5955 13.05L89 13.6069L89.4045 13.05C90.5291 11.5018 92.3271 10.5 94.328 10.5C97.7197 10.5 100.5 13.3496 100.5 16.909C100.5 18.327 100.28 19.6361 99.899 20.8502L99.898 20.8534C98.9841 23.8321 97.1135 26.2269 95.1021 28.0074C93.0881 29.7901 90.9598 30.9329 89.5786 31.4169L89.5786 31.4169L89.5732 31.4188C89.4409 31.4669 89.2331 31.5 89 31.5C88.7669 31.5 88.5591 31.4669 88.4268 31.4188L88.4268 31.4188L88.4214 31.4169C87.0402 30.9329 84.9119 29.7901 82.8979 28.0074C80.8865 26.2269 79.0159 23.8321 78.102 20.8534L78.102 20.8534L78.101 20.8502C77.7197 19.6361 77.5 18.327 77.5 16.909C77.5 13.3496 80.2803 10.5 83.672 10.5C85.6729 10.5 87.4709 11.5018 88.5955 13.05Z" fill="#FF7AAC" stroke="#3131FF"/>
<path d="M8.288 8.6H12.128C13.9627 8.6 15.4453 8.86667 16.576 9.4C17.728 9.93333 18.5813 10.6693 19.136 11.608C19.712 12.5253 20.0213 13.5707 20.064 14.744C20.1067 15.832 19.9253 16.824 19.52 17.72C19.1147 18.616 18.56 19.3627 17.856 19.96C17.152 20.5573 16.3413 20.9947 15.424 21.272C14.528 21.528 13.5893 21.592 12.608 21.464C11.648 21.3147 10.7093 20.9413 9.792 20.344V20.024C9.792 20.024 9.92 20.024 10.176 20.024C10.4533 20.024 10.7947 19.9813 11.2 19.896C11.6267 19.8107 12.064 19.6507 12.512 19.416C12.9813 19.1813 13.4187 18.8187 13.824 18.328C14.2293 17.8373 14.5387 17.1867 14.752 16.376C14.8373 16.0987 14.8907 15.7893 14.912 15.448C14.9547 15.0853 14.9653 14.7547 14.944 14.456C14.9227 13.0907 14.5493 12.0027 13.824 11.192C13.12 10.36 12.1173 9.944 10.816 9.944H8.608C8.608 9.944 8.576 9.83733 8.512 9.624C8.46933 9.38933 8.416 9.16533 8.352 8.952C8.30933 8.71733 8.288 8.6 8.288 8.6ZM8.704 8.6V31H3.904V8.6H8.704ZM4 28.664V31H1.44V30.68C1.46133 30.68 1.52533 30.68 1.632 30.68C1.76 30.68 1.83467 30.68 1.856 30.68C2.41067 30.68 2.88 30.488 3.264 30.104C3.66933 29.6987 3.88267 29.2187 3.904 28.664H4ZM4 10.936H3.904C3.904 10.3813 3.70133 9.912 3.296 9.528C2.89067 9.12267 2.41067 8.92 1.856 8.92C1.83467 8.92 1.77067 8.92 1.664 8.92C1.55733 8.92 1.49333 8.92 1.472 8.92L1.44 8.6H4V10.936ZM8.608 28.664H8.704C8.72533 29.2187 8.928 29.6987 9.312 30.104C9.71733 30.488 10.1973 30.68 10.752 30.68C10.7733 30.68 10.8373 30.68 10.944 30.68C11.072 30.68 11.1467 30.68 11.168 30.68V31H8.608V28.664ZM28.587 11.8H32.043C32.9177 11.8 33.771 11.896 34.603 12.088C35.435 12.2587 36.1817 12.5467 36.843 12.952C37.5043 13.336 38.027 13.8693 38.411 14.552C38.8163 15.2133 39.019 16.0453 39.019 17.048C39.019 17.7947 38.859 18.5413 38.539 19.288C38.2403 20.0133 37.7603 20.6427 37.099 21.176C36.459 21.7093 35.6163 22.0613 34.571 22.232C35.1897 22.424 35.7763 22.7973 36.331 23.352C36.907 23.9067 37.355 24.4293 37.675 24.92C37.7603 25.0907 37.9097 25.368 38.123 25.752C38.3363 26.1147 38.603 26.5413 38.923 27.032C39.2643 27.5013 39.6163 27.992 39.979 28.504C40.4057 29.08 40.779 29.528 41.099 29.848C41.419 30.1467 41.7497 30.36 42.091 30.488C42.4323 30.616 42.827 30.68 43.275 30.68V31H40.587C39.435 31 38.4537 30.9147 37.643 30.744C36.8537 30.5733 36.1603 30.264 35.563 29.816C34.987 29.3467 34.4537 28.7173 33.963 27.928C33.771 27.6507 33.5683 27.32 33.355 26.936C33.1417 26.5307 32.9283 26.1253 32.715 25.72C32.5017 25.3147 32.3097 24.92 32.139 24.536C31.9897 24.152 31.883 23.832 31.819 23.576C31.5417 22.8933 31.2217 22.4027 30.859 22.104C30.5177 21.784 30.1977 21.624 29.899 21.624V21.336C29.899 21.336 29.9737 21.336 30.123 21.336C30.2723 21.336 30.4643 21.336 30.699 21.336C31.147 21.336 31.5843 21.2613 32.011 21.112C32.459 20.9413 32.8643 20.632 33.227 20.184C33.5897 19.7147 33.8563 19.032 34.027 18.136C34.0697 18.008 34.1017 17.8267 34.123 17.592C34.1657 17.3573 34.1763 17.0907 34.155 16.792C34.1123 16.0027 33.963 15.3733 33.707 14.904C33.4723 14.4133 33.1737 14.0507 32.811 13.816C32.4483 13.56 32.075 13.3893 31.691 13.304C31.3283 13.1973 31.0083 13.144 30.731 13.144C30.3257 13.1227 29.9523 13.1227 29.611 13.144C29.291 13.144 29.0457 13.1333 28.875 13.112C28.8537 13.112 28.8217 13.0053 28.779 12.792C28.7363 12.5573 28.6937 12.3333 28.651 12.12C28.6083 11.9067 28.587 11.8 28.587 11.8ZM28.907 11.8V31H24.267V11.8H28.907ZM24.363 28.984L24.491 31H22.187V30.68C22.2083 30.68 22.2617 30.68 22.347 30.68C22.4537 30.68 22.5283 30.68 22.571 30.68C23.0403 30.68 23.435 30.52 23.755 30.2C24.0963 29.8587 24.2777 29.4533 24.299 28.984H24.363ZM24.363 13.784H24.299C24.2777 13.2933 24.0963 12.8987 23.755 12.6C23.435 12.28 23.051 12.12 22.603 12.12C22.539 12.12 22.4537 12.12 22.347 12.12C22.2617 12.12 22.2083 12.12 22.187 12.12V11.8H24.491L24.363 13.784ZM28.843 28.984H28.907C28.907 29.5173 29.0883 29.9333 29.451 30.232C29.835 30.5307 30.2403 30.68 30.667 30.68C30.667 30.68 30.7097 30.68 30.795 30.68C30.8803 30.68 30.9443 30.68 30.987 30.68V31H28.683L28.843 28.984ZM49.7775 11.8V31H45.1695V11.8H49.7775ZM57.2655 29.72L58.0015 31H49.7135V29.72H57.2655ZM56.1775 20.856V22.136H49.7135V20.856H56.1775ZM57.6175 11.8V13.08H49.7135V11.8H57.6175ZM59.3135 25.112L58.0975 31H52.5615L53.5535 29.72C54.4708 29.72 55.2815 29.5387 55.9855 29.176C56.7108 28.792 57.3295 28.2587 57.8415 27.576C58.3535 26.872 58.7482 26.0507 59.0255 25.112H59.3135ZM56.1775 22.072V24.888H55.8575V24.632C55.8575 23.928 55.6335 23.3413 55.1855 22.872C54.7588 22.4027 54.1722 22.1573 53.4255 22.136V22.072H56.1775ZM56.1775 18.104V20.92H53.4255V20.856C54.1722 20.8347 54.7588 20.5893 55.1855 20.12C55.6335 19.6293 55.8575 19.032 55.8575 18.328V18.104H56.1775ZM57.6175 13.016V16.408H57.2975V16.12C57.2975 15.1813 57.0415 14.4453 56.5295 13.912C56.0388 13.3787 55.3242 13.1013 54.3855 13.08V13.016H57.6175ZM57.6175 11.32V12.088L54.2575 11.8C54.8762 11.8 55.5268 11.7467 56.2095 11.64C56.8922 11.512 57.3615 11.4053 57.6175 11.32ZM45.2335 28.984L45.3935 31H43.0255V30.68C43.0255 30.68 43.0895 30.68 43.2175 30.68C43.3455 30.68 43.4202 30.68 43.4415 30.68C43.9108 30.68 44.3055 30.52 44.6255 30.2C44.9668 29.8587 45.1482 29.4533 45.1695 28.984H45.2335ZM45.2335 13.816H45.1695C45.1482 13.3253 44.9668 12.92 44.6255 12.6C44.3055 12.28 43.9108 12.12 43.4415 12.12C43.4202 12.12 43.3455 12.12 43.2175 12.12C43.0895 12.12 43.0255 12.12 43.0255 12.12V11.8H45.3935L45.2335 13.816ZM67.715 11.8V31H63.107V11.8H67.715ZM75.171 29.72L75.939 31H67.651V29.72H75.171ZM77.283 25.112L76.035 31H70.499L71.491 29.72C72.4083 29.72 73.219 29.5387 73.923 29.176C74.6483 28.792 75.267 28.2587 75.779 27.576C76.291 26.872 76.6857 26.0507 76.963 25.112H77.283ZM63.171 28.984L63.331 31H60.963V30.68C60.963 30.68 61.027 30.68 61.155 30.68C61.283 30.68 61.3577 30.68 61.379 30.68C61.8483 30.68 62.243 30.52 62.563 30.2C62.9043 29.8587 63.0857 29.4533 63.107 28.984H63.171ZM67.651 13.816V11.8H69.859V12.12C69.8377 12.12 69.763 12.12 69.635 12.12C69.5283 12.12 69.475 12.12 69.475 12.12C69.0057 12.12 68.6003 12.28 68.259 12.6C67.9177 12.92 67.7363 13.3253 67.715 13.816H67.651ZM63.171 13.816H63.107C63.0857 13.3253 62.9043 12.92 62.563 12.6C62.2217 12.28 61.8163 12.12 61.347 12.12C61.3257 12.12 61.251 12.12 61.123 12.12C61.0163 12.12 60.963 12.12 60.963 12.12V11.8H63.171V13.816ZM111.742 31.416L102.334 11.96H107.774L113.598 25.528L111.742 31.416ZM111.742 31.416L111.614 27.672L118.558 11.896H120.894L113.502 27.512C113.459 27.6187 113.363 27.8427 113.214 28.184C113.064 28.504 112.904 28.8773 112.734 29.304C112.563 29.7093 112.403 30.104 112.254 30.488C112.126 30.872 112.051 31.1813 112.03 31.416H111.742ZM117.662 13.912C117.896 13.336 117.864 12.888 117.566 12.568C117.288 12.248 116.958 12.088 116.574 12.088H116.35V11.8H122.718V12.12C122.718 12.12 122.675 12.12 122.59 12.12C122.504 12.12 122.462 12.12 122.462 12.12C122.035 12.12 121.587 12.2587 121.118 12.536C120.648 12.792 120.254 13.2507 119.934 13.912H117.662ZM108.606 13.912H103.294C102.974 13.2507 102.579 12.792 102.11 12.536C101.662 12.2587 101.224 12.12 100.797 12.12C100.797 12.12 100.765 12.12 100.701 12.12C100.616 12.12 100.573 12.12 100.573 12.12V11.8H109.95V12.088H109.694C109.352 12.088 109.032 12.248 108.734 12.568C108.435 12.888 108.392 13.336 108.606 13.912ZM129.84 11.8V31H125.232V11.8H129.84ZM137.328 29.72L138.064 31H129.776V29.72H137.328ZM136.24 20.856V22.136H129.776V20.856H136.24ZM137.68 11.8V13.08H129.776V11.8H137.68ZM139.376 25.112L138.16 31H132.624L133.616 29.72C134.533 29.72 135.344 29.5387 136.048 29.176C136.773 28.792 137.392 28.2587 137.904 27.576C138.416 26.872 138.811 26.0507 139.088 25.112H139.376ZM136.24 22.072V24.888H135.92V24.632C135.92 23.928 135.696 23.3413 135.248 22.872C134.821 22.4027 134.235 22.1573 133.488 22.136V22.072H136.24ZM136.24 18.104V20.92H133.488V20.856C134.235 20.8347 134.821 20.5893 135.248 20.12C135.696 19.6293 135.92 19.032 135.92 18.328V18.104H136.24ZM137.68 13.016V16.408H137.36V16.12C137.36 15.1813 137.104 14.4453 136.592 13.912C136.101 13.3787 135.387 13.1013 134.448 13.08V13.016H137.68ZM137.68 11.32V12.088L134.32 11.8C134.939 11.8 135.589 11.7467 136.272 11.64C136.955 11.512 137.424 11.4053 137.68 11.32ZM125.296 28.984L125.456 31H123.088V30.68C123.088 30.68 123.152 30.68 123.28 30.68C123.408 30.68 123.483 30.68 123.504 30.68C123.973 30.68 124.368 30.52 124.688 30.2C125.029 29.8587 125.211 29.4533 125.232 28.984H125.296ZM125.296 13.816H125.232C125.211 13.3253 125.029 12.92 124.688 12.6C124.368 12.28 123.973 12.12 123.504 12.12C123.483 12.12 123.408 12.12 123.28 12.12C123.152 12.12 123.088 12.12 123.088 12.12V11.8H125.456L125.296 13.816ZM151.81 11.8C154.092 11.8 156.055 12.184 157.698 12.952C159.34 13.6987 160.599 14.7973 161.474 16.248C162.348 17.6773 162.786 19.3947 162.786 21.4C162.786 23.4053 162.348 25.1227 161.474 26.552C160.599 27.9813 159.34 29.08 157.698 29.848C156.055 30.616 154.092 31 151.81 31H144.706L144.641 29.72C146.263 29.72 147.564 29.72 148.546 29.72C149.548 29.72 150.274 29.72 150.722 29.72C151.191 29.72 151.426 29.72 151.426 29.72C153.431 29.72 155.01 28.984 156.162 27.512C157.314 26.04 157.89 24.0027 157.89 21.4C157.89 18.7973 157.314 16.76 156.162 15.288C155.01 13.7947 153.431 13.048 151.426 13.048C151.426 13.048 151.191 13.048 150.722 13.048C150.252 13.048 149.495 13.048 148.45 13.048C147.404 13.048 146.028 13.048 144.322 13.048V11.8H151.81ZM147.81 11.8V31H143.202V11.8H147.81ZM143.298 28.952V31H140.993V30.68C140.993 30.68 141.058 30.68 141.186 30.68C141.314 30.68 141.388 30.68 141.41 30.68C141.9 30.68 142.316 30.5093 142.658 30.168C143.02 29.8267 143.202 29.4213 143.202 28.952H143.298ZM143.266 13.816H143.202C143.18 13.3253 142.988 12.92 142.626 12.6C142.284 12.28 141.868 12.12 141.378 12.12C141.378 12.12 141.314 12.12 141.186 12.12C141.058 12.12 140.993 12.12 140.993 12.12V11.8H143.266V13.816Z" fill="#3131FF"/>
</svg>
