<svg width="24" height="25" viewBox="0 0 24 25" fill="none" xmlns="http://www.w3.org/2000/svg">
<path d="M11.443 22.886C5.13539 22.886 0 17.7506 0 11.443C0 5.13539 5.13539 0 11.443 0C17.7506 0 22.886 5.13539 22.886 11.443C22.886 17.7506 17.7506 22.886 11.443 22.886ZM11.443 1.67458C6.05082 1.67458 1.67458 6.06199 1.67458 11.443C1.67458 16.824 6.05082 21.2114 11.443 21.2114C16.8351 21.2114 21.2114 16.824 21.2114 11.443C21.2114 6.06199 16.8351 1.67458 11.443 1.67458Z" fill="#FFFEFE"/>
<path d="M23.1655 24.0023C22.9534 24.0023 22.7413 23.9241 22.5738 23.7566L20.3411 21.5239C20.0173 21.2001 20.0173 20.6643 20.3411 20.3405C20.6648 20.0167 21.2007 20.0167 21.5244 20.3405L23.7572 22.5733C24.081 22.897 24.081 23.4329 23.7572 23.7566C23.5897 23.9241 23.3776 24.0023 23.1655 24.0023Z" fill="#FFFEFE"/>
</svg>
