<svg width="16" height="15" viewBox="0 0 16 15" fill="none" xmlns="http://www.w3.org/2000/svg">
<g clip-path="url(#clip0_117_407)">
<path d="M3.63281 14.9999V4.87941H0.202508V14.9999H3.63281ZM1.9181 3.4968C3.11431 3.4968 3.85889 2.71966 3.85889 1.7485C3.8366 0.755443 3.11436 -0.00012207 1.9408 -0.00012207C0.767434 -0.00012207 0.00012207 0.755458 0.00012207 1.7485C0.00012207 2.71971 0.74452 3.4968 1.89571 3.4968H1.918H1.9181ZM5.53147 14.9999H8.96177V9.34812C8.96177 9.04564 8.98406 8.74348 9.07465 8.52726C9.32263 7.92292 9.88705 7.297 10.8346 7.297C12.0759 7.297 12.5725 8.22508 12.5725 9.58558V14.9998H16.0026V9.19683C16.0026 6.08821 14.3103 4.64181 12.0533 4.64181C10.2028 4.64181 9.39033 5.65614 8.93895 6.34699H8.96185V4.8792H5.53155C5.57657 5.82885 5.53155 14.9997 5.53155 14.9997L5.53147 14.9999Z" fill="#3131FF"/>
</g>
<defs>
<clipPath id="clip0_117_407">
<rect width="16" height="15" fill="white"/>
</clipPath>
</defs>
</svg>
