<svg width="14" height="19" viewBox="0 0 14 19" fill="none" xmlns="http://www.w3.org/2000/svg">
<g clip-path="url(#clip0_117_396)">
<path d="M6.13594 18.525C4.23281 16.1426 0 10.3684 0 7.125C0 3.18992 3.13396 0 7 0C10.8646 0 14 3.18992 14 7.125C14 10.3684 9.73438 16.1426 7.86406 18.525C7.41562 19.0928 6.58437 19.0928 6.13594 18.525ZM7 9.5C8.28698 9.5 9.33333 8.43496 9.33333 7.125C9.33333 5.81504 8.28698 4.75 7 4.75C5.71302 4.75 4.66667 5.81504 4.66667 7.125C4.66667 8.43496 5.71302 9.5 7 9.5Z" fill="#2E2F2F"/>
</g>
<defs>
<clipPath id="clip0_117_396">
<rect width="14" height="19" fill="white"/>
</clipPath>
</defs>
</svg>
