<svg width="18" height="14" viewBox="0 0 18 14" fill="none" xmlns="http://www.w3.org/2000/svg">
<g clip-path="url(#clip0_117_411)">
<path d="M17.9998 1.70478C17.3258 1.98925 16.6108 2.17597 15.8788 2.25875C16.6413 1.82334 17.2268 1.13386 17.5025 0.312345C16.7776 0.722154 15.9845 1.01089 15.1575 1.16608C14.4838 0.482355 13.5241 0.0550537 12.4619 0.0550537C10.4224 0.0550537 8.76891 1.63029 8.76891 3.57314C8.76891 3.84892 8.80161 4.1174 8.86454 4.37496C5.79539 4.22819 3.0743 2.82759 1.25286 0.699053C0.935043 1.21866 0.752934 1.82307 0.752934 2.46774C0.752934 3.68835 1.40494 4.76515 2.39579 5.39608C1.80934 5.37859 1.2358 5.22769 0.723051 4.95599C0.72284 4.97073 0.72284 4.98546 0.72284 5.00027C0.72284 6.70485 1.99578 8.12682 3.68511 8.45003C3.1413 8.59092 2.57088 8.61154 2.01743 8.51031C2.48733 9.90803 3.85118 10.9251 5.46711 10.9536C4.20324 11.8972 2.61087 12.4597 0.880762 12.4597C0.582637 12.4597 0.288731 12.443 -0.000183105 12.4105C1.63409 13.4087 3.57521 13.9911 5.66068 13.9911C12.4534 13.9911 16.1678 8.63022 16.1678 3.98115C16.1678 3.82855 16.1642 3.67683 16.1571 3.52598C16.88 3.02807 17.5041 2.41135 17.9998 1.70478Z" fill="#3131FF"/>
</g>
<defs>
<clipPath id="clip0_117_411">
<rect width="18" height="14" fill="white"/>
</clipPath>
</defs>
</svg>
